<?xml version="1.0" encoding="UTF-8" standalone="no"?>
<!-- Created with Inkscape (http://www.inkscape.org/) -->

<svg
   width="210mm"
   height="297mm"
   viewBox="0 0 210 297"
   version="1.1"
   id="svg5"
   inkscape:version="1.1.1 (3bf5ae0d25, 2021-09-20)"
   sodipodi:docname="tinder_icons.svg"
   xmlns:inkscape="http://www.inkscape.org/namespaces/inkscape"
   xmlns:sodipodi="http://sodipodi.sourceforge.net/DTD/sodipodi-0.dtd"
   xmlns="http://www.w3.org/2000/svg"
   xmlns:svg="http://www.w3.org/2000/svg">
  <sodipodi:namedview
     id="namedview7"
     pagecolor="#ffffff"
     bordercolor="#666666"
     borderopacity="1.0"
     inkscape:pageshadow="2"
     inkscape:pageopacity="0.0"
     inkscape:pagecheckerboard="true"
     inkscape:document-units="mm"
     showgrid="false"
     borderlayer="true"
     showborder="false"
     inkscape:zoom="0.456068"
     inkscape:cx="1079.8828"
     inkscape:cy="313.54973"
     inkscape:window-width="1920"
     inkscape:window-height="986"
     inkscape:window-x="-11"
     inkscape:window-y="-11"
     inkscape:window-maximized="1"
     inkscape:current-layer="layer1" />
  <defs
     id="defs2" />
  <g
     inkscape:label="Vrstva 1"
     inkscape:groupmode="layer"
     id="layer1">
    <circle
       style="fill:#ffffff;fill-opacity:1;stroke:#ff00fe;stroke-width:0.79;stroke-linejoin:round;stroke-opacity:1;stroke-miterlimit:4;stroke-dasharray:none"
       id="path1034"
       cx="75.998352"
       cy="132.85207"
       r="98.081245" />
    <circle
       style="fill:#ffffff;fill-opacity:1;stroke:#ff00fe;stroke-width:0.79;stroke-linejoin:round;stroke-miterlimit:4;stroke-dasharray:none;stroke-opacity:1"
       id="path1034-1"
       cx="321.61325"
       cy="129.21962"
       r="98.081245" />
    <path
       style="fill:#ff008c;fill-opacity:1;stroke-width:0.264583"
       d="m 75.399316,193.60033 c -0.29104,-0.18998 -2.73182,-1.68736 -5.42396,-3.32752 C 56.347637,181.97025 43.123507,172.02286 32.934313,162.40998 19.370401,149.61327 10.943173,136.62914 9.003207,125.53848 8.165942,120.7519 8.574119,114.53161 10.044768,109.6659 17.199774,85.993224 45.066467,75.885014 65.541696,89.535214 c 3.89114,2.594103 8.61166,7.301613 10.24061,10.212393 0.13133,0.23467 0.28093,0.368133 0.33246,0.296583 6.30692,-8.758063 13.815032,-13.866436 23.359622,-15.893436 3.308902,-0.70272 7.871562,-0.91542 11.233312,-0.52369 16.08752,1.87462 28.82328,13.492883 32.2102,29.383936 0.67413,3.16295 0.67311,10.60373 -0.002,13.75834 -3.7607,17.57573 -21.69987,37.66767 -51.455842,57.63076 -3.98262,2.67191 -15.180322,9.60232 -15.445652,9.55952 -0.0473,-0.008 -0.32417,-0.16931 -0.61521,-0.35929 z"
       id="path854" />
    <path
       style="fill:#6537fe;fill-opacity:0.840557;stroke-width:0.228325"
       d="m 324.54819,194.13599 c -2.14865,-0.39653 -3.84465,-1.58135 -4.8146,-3.36348 -0.46789,-0.85967 -0.82344,-2.32148 -1.54698,-6.36013 -0.5167,-2.88414 -1.02264,-5.44939 -1.12432,-5.70055 -0.10168,-0.25115 -4.93816,-5.95358 -10.74775,-12.67204 l -10.56289,-12.2154 -2.025,-0.0657 -2.02499,-0.0657 v 3.20511 3.20513 H 277.43134 263.16101 V 121.74465 83.386023 h 14.26388 14.26388 l 0.0635,3.040751 0.0635,3.040752 6.84975,-2.586842 6.84976,-2.586842 27.05653,0.05982 27.05653,0.05982 1.48412,0.531494 c 2.00888,0.719426 3.40002,1.645581 4.89143,3.256491 2.94903,3.185291 3.8367,7.580527 2.35468,11.659034 l -0.55202,1.519179 1.15925,0.53575 c 1.78312,0.82406 4.07877,3.21253 5.0349,5.23846 1.63262,3.45935 1.57849,6.30186 -0.20014,10.50859 -0.11592,0.27418 0.10445,0.52311 0.84982,0.95992 1.43763,0.84251 3.45197,3.1147 4.2362,4.77848 2.18889,4.64382 1.30075,9.4657 -2.42311,13.15546 l -1.69854,1.68299 0.61454,1.25505 c 0.338,0.69028 0.77561,2.03923 0.97248,2.99768 1.13421,5.52194 -2.38736,11.35049 -7.88358,13.0481 -1.40148,0.43287 -2.15016,0.45327 -16.62713,0.45327 -11.36994,0 -15.15957,0.0664 -15.15957,0.26553 0,0.14603 1.06821,2.99725 2.37382,6.33602 3.60748,9.2253 4.10091,11.23726 4.12055,16.80179 0.0156,4.42957 -0.37001,5.96196 -2.18229,8.67154 -1.85831,2.77842 -4.75329,4.85542 -7.97564,5.72213 -1.48226,0.39867 -6.9691,0.62249 -8.46997,0.34551 z m 7.74286,-7.31557 c 1.50746,-0.65129 3.28848,-2.54289 3.79563,-4.0313 0.69496,-2.03958 0.39093,-6.58502 -0.69096,-10.33067 -0.31237,-1.08148 -2.41124,-6.65749 -4.66413,-12.39114 -2.2529,-5.73365 -4.09618,-10.48242 -4.09618,-10.55283 0,-0.0704 8.91324,-0.15693 19.80722,-0.1923 l 19.8072,-0.0643 1.06963,-0.62877 c 1.27947,-0.75213 1.89889,-1.56466 2.28049,-2.99143 0.53185,-1.9885 -0.48437,-4.20932 -2.39296,-5.2295 -0.94164,-0.50333 -1.11365,-0.51274 -10.60993,-0.58021 l -9.65279,-0.0686 0.0631,-3.35631 0.0631,-3.3563 11.53042,-0.11417 c 11.09991,-0.10989 11.56014,-0.13161 12.32641,-0.58176 1.89925,-1.11573 2.75417,-3.60733 1.9554,-5.69888 -0.48474,-1.26926 -1.87166,-2.49204 -3.20835,-2.82862 -0.66189,-0.16666 -4.75723,-0.25206 -12.08787,-0.25206 h -11.08682 v -3.41762 -3.4176 l 9.43824,-0.0644 9.43824,-0.0644 0.91027,-0.63103 c 3.289,-2.28004 2.39379,-7.30427 -1.49388,-8.38416 -0.50413,-0.14003 -5.43275,-0.22993 -12.64792,-0.23071 l -11.82195,-0.001 0.0632,-3.3678 0.0632,-3.36779 9.37842,-0.11417 9.37843,-0.11416 0.92517,-0.612523 c 2.57312,-1.703568 2.81866,-5.362399 0.49344,-7.352701 -0.49978,-0.427797 -1.35917,-0.891244 -1.90974,-1.029881 -0.70088,-0.176482 -8.65589,-0.251256 -26.52945,-0.249367 l -25.5284,0.0027 -7.42057,2.807124 -7.42056,2.807124 -0.0581,25.045854 -0.0581,25.04585 h 3.53016 3.53015 l 12.35886,14.28974 12.35886,14.28974 1.02284,5.7458 c 0.56256,3.16019 1.06971,5.88824 1.12701,6.06234 0.17935,0.54509 5.15044,0.22604 6.66353,-0.42767 z M 284.85191,121.7447 V 90.235822 h -7.42057 -7.42057 v 31.508878 31.50888 h 7.42057 7.42057 z"
       id="path14275" />
  </g>
</svg>
