<?xml version="1.0" encoding="UTF-8"?>
<svg width="923px" height="230px" viewBox="0 0 923 230" version="1.1" xmlns="http://www.w3.org/2000/svg" xmlns:xlink="http://www.w3.org/1999/xlink">
    <!-- Generator: Sketch 49 (51002) - http://www.bohemiancoding.com/sketch -->
    <title>Artboard 2 Copy</title>
    <desc>Created with Sketch.</desc>
    <defs></defs>
    <g id="Artboard-2-Copy" stroke="none" stroke-width="1" fill="none" fill-rule="evenodd">
        <g id="Group-22-Copy-3" transform="translate(2.000000, 25.000000)">
            <g id="Group-6">
                <g id="Group-4">
                    <g id="Group-16-Copy-3" transform="translate(41.340224, 26.000000)">
                        <path d="M397.4152,186.805556 L423.262156,129.048428 L433.656216,113.822368 L469.148811,4.40350877 L575.688705,107.700567 L582.719524,20.9829955 L482.356441,4.40350877 L447.36383,8.83059211 L333.901809,56.8792032 L429.786781,120.930556 M508.781976,186.805556 L437.469753,129.048428 L442.804977,120.883955 L569.257244,109.522661 L571.566172,109.522661 L544.105916,182.42818 M632.393583,182.42818 L575.688705,109.522661" id="Path-66" stroke="#D0E0E5" stroke-width="9"></path>
                        <path d="M316.989334,59.2807018 L201.148512,72.4718567" id="Path-8" stroke="#D0E0E5" stroke-width="9"></path>
                        <path d="M267.928873,124.963085 L192.403464,73.2671784" id="Path-8" stroke="#D0E0E5" stroke-width="9"></path>
                        <path d="M100.639471,36.1977339 L192.403464,73.2671784" id="Path-8" stroke="#D0E0E5" stroke-width="9"></path>
                        <path d="M245.258829,4.00584795 L192.403464,73.2671784" id="Path-8" stroke="#D0E0E5" stroke-width="9"></path>
                        <path d="M245.258829,4.00584795 L340.659345,63.6549708" id="Path-8" stroke="#D0E0E5" stroke-width="9"></path>
                        <path d="M245.258829,4.00584795 L104.543066,31.8421053" id="Path-8" stroke="#D0E0E5" stroke-width="9"></path>
                        <path d="M97.3880276,37.4093567 L166.553402,181.362573" id="Path-8" stroke="#D0E0E5" stroke-width="9"></path>
                        <path d="M92.6180017,35.0233918 L0.397502153,153.526316" id="Path-8" stroke="#D0E0E5" stroke-width="9"></path>
                        <path d="M267.928873,124.963085 L332.324222,58.9513889" id="Path-8" stroke="#D0E0E5" stroke-width="9"></path>
                        <path d="M349.814317,225.968933 L332.324222,58.9513889" id="Path-8" stroke="#D0E0E5" stroke-width="9"></path>
                        <path d="M267.928873,124.963085 L171.733352,176.658991" id="Path-8" stroke="#D0E0E5" stroke-width="9"></path>
                        <path d="M271.159776,126.5 L267.928873,215.629751" id="Path-8" stroke="#D0E0E5" stroke-width="9"></path>
                        <path d="M572.23851,109.13432 L677.188395,90.4256213" id="Path-2" stroke="#D0E0E5" stroke-width="9"></path>
                        <path d="M581.54565,22.2982456 L677.188395,90.4256213" id="Path-2" stroke="#D0E0E5" stroke-width="9"></path>
                        <path d="M676.151163,81.9473684 L665.816107,0.824561404" id="Path-2" stroke="#D0E0E5" stroke-width="9"></path>
                        <path d="M807.326873,91.4912281 L665.816107,0.824561404" id="Path-2" stroke="#D0E0E5" stroke-width="9"></path>
                        <path d="M808.916882,92.2865497 L838.332041,191.701754" id="Path-2" stroke="#D0E0E5" stroke-width="9"></path>
                        <path d="M808.916882,92.2865497 L716.696382,171.023392" id="Path-2" stroke="#D0E0E5" stroke-width="9"></path>
                        <path d="M805.736865,93.0818713 L680.126184,90.6959064" id="Path-2" stroke="#D0E0E5" stroke-width="9"></path>
                        <path d="M707.156331,151.935673 L680.126184,90.6959064" id="Path-2" stroke="#D0E0E5" stroke-width="9"></path>
                        <ellipse id="Oval-7" fill="#1274BF" cx="427.712317" cy="119.725146" rx="37.3652024" ry="37.380117"></ellipse>
                        <ellipse id="Oval-7-Copy" fill="#1274BF" cx="715.489262" cy="171.435673" rx="25.4255238" ry="25.4356725"></ellipse>
                        <ellipse id="Oval-7-Copy-4" fill="#1274BF" cx="839.127046" cy="200.450292" rx="42.5327304" ry="42.5497076"></ellipse>
                        <ellipse id="Oval-7-Copy-12" fill="#1274BF" cx="807.326873" cy="91.4912281" rx="20.2726098" ry="20.2807018"></ellipse>
                        <ellipse id="Oval-7-Copy-2" fill="#1274BF" cx="333.504307" cy="58.0877193" rx="31.4026701" ry="31.4152047"></ellipse>
                        <ellipse id="Oval-7-Copy-3" fill="#1274BF" cx="160.988372" cy="177.385965" rx="31.4026701" ry="31.4152047"></ellipse>
                        <ellipse id="Oval-7-Copy-6" fill="#1274BF" cx="580.750646" cy="19.9122807" rx="16.2975883" ry="16.3040936"></ellipse>
                        <ellipse id="Oval-7-Copy-5" fill="#1274BF" cx="571.608096" cy="109.385965" rx="26.2351421" ry="26.245614"></ellipse>
                        <ellipse id="Oval-7-Copy-10" fill="#1274BF" cx="678.933678" cy="91.8888889" rx="20.670112" ry="20.6783626"></ellipse>
                    </g>
                    <ellipse id="Oval-7-Copy-7" fill="#1274BF" cx="508.405254" cy="28.4152047" rx="28.2226529" ry="28.2339181"></ellipse>
                    <ellipse id="Oval-7-Copy-9" fill="#1274BF" cx="708.746339" cy="28.4152047" rx="28.2226529" ry="28.2339181"></ellipse>
                    <ellipse id="Oval-7-Copy-8" fill="#1274BF" cx="233.731266" cy="98.8011696" rx="23.8501292" ry="23.8596491"></ellipse>
                    <ellipse id="Oval-7-Copy-20" fill="#1274BF" cx="284.611542" cy="29.6081871" rx="15.1050818" ry="15.1111111"></ellipse>
                    <ellipse id="Oval-7-Copy-18" fill="#1274BF" cx="138.728252" cy="59.4327485" rx="31.4026701" ry="31.4152047"></ellipse>
                    <ellipse id="Oval-7-Copy-19" fill="#1274BF" cx="36.9677003" cy="186.684211" rx="36.9677003" ry="36.9824561"></ellipse>
                    <ellipse id="Oval-7-Copy-11" fill="#1274BF" cx="311.641688" cy="152.087719" rx="22.3217054" ry="22.3306153"></ellipse>
                </g>
            </g>
        </g>
    </g>
</svg>