<?xml version="1.0" encoding="UTF-8" standalone="no"?>
<!-- Created with Inkscape (http://www.inkscape.org/) -->

<svg
   width="297mm"
   height="210mm"
   viewBox="0 0 297 210"
   version="1.1"
   id="svg42109"
   inkscape:version="1.1.1 (3bf5ae0d25, 2021-09-20)"
   sodipodi:docname="plakat_3.svg"
   xmlns:inkscape="http://www.inkscape.org/namespaces/inkscape"
   xmlns:sodipodi="http://sodipodi.sourceforge.net/DTD/sodipodi-0.dtd"
   xmlns="http://www.w3.org/2000/svg"
   xmlns:svg="http://www.w3.org/2000/svg">
  <sodipodi:namedview
     id="namedview42111"
     pagecolor="#ffffff"
     bordercolor="#666666"
     borderopacity="1.0"
     inkscape:pageshadow="2"
     inkscape:pageopacity="0.0"
     inkscape:pagecheckerboard="0"
     inkscape:document-units="mm"
     showgrid="false"
     inkscape:zoom="5.1598204"
     inkscape:cx="404.18073"
     inkscape:cy="546.72445"
     inkscape:window-width="2880"
     inkscape:window-height="1526"
     inkscape:window-x="-11"
     inkscape:window-y="-11"
     inkscape:window-maximized="1"
     inkscape:current-layer="layer1" />
  <defs
     id="defs42106" />
  <g
     inkscape:label="Vrstva 1"
     inkscape:groupmode="layer"
     id="layer1">
    <path
       id="rect42238"
       style="opacity:0.673295;fill:#668000;stroke-width:3.61113;stroke-linejoin:round"
       d="M 79.580078 528.70117 C 79.3664 528.70117 79.195312 528.87226 79.195312 529.08594 L 79.195312 543.81836 C 79.195312 544.03204 79.3664 544.20508 79.580078 544.20508 L 225.4082 544.20508 A 22.869013 22.869013 0 0 1 224.03906 536.45312 A 22.869013 22.869013 0 0 1 225.4082 528.70117 L 79.580078 528.70117 z M 268.42188 528.70117 A 22.869013 22.869013 0 0 1 269.77734 536.45312 A 22.869013 22.869013 0 0 1 268.40625 544.20508 L 378.41797 544.20508 A 22.869013 22.869013 0 0 1 377.04883 536.45312 A 22.869013 22.869013 0 0 1 378.41797 528.70117 L 268.42188 528.70117 z M 386.85938 528.70117 A 15.194719 15.194719 0 0 0 384.72266 536.45312 A 15.194719 15.194719 0 0 0 386.85938 544.20508 L 412.98438 544.20508 A 15.194719 15.194719 0 0 0 415.11133 536.45312 A 15.194719 15.194719 0 0 0 412.98438 528.70117 L 386.85938 528.70117 z M 421.43164 528.70117 A 22.869013 22.869013 0 0 1 422.78711 536.45312 A 22.869013 22.869013 0 0 1 421.43164 544.20508 L 1039.8379 544.20508 C 1040.0516 544.20508 1040.2227 544.03204 1040.2227 543.81836 L 1040.2227 529.08594 C 1040.2227 528.87226 1040.0516 528.70117 1039.8379 528.70117 L 421.43164 528.70117 z "
       transform="scale(0.26458333)" />
    <path
       id="path42342"
       style="opacity:0.673295;fill:#668000;stroke-width:1;stroke-linejoin:round"
       d="m 65.327795,135.88576 a 6.0507596,6.0507596 0 0 0 -6.050793,6.05079 6.0507596,6.0507596 0 0 0 6.050793,6.0508 6.0507596,6.0507596 0 0 0 6.050793,-6.0508 6.0507596,6.0507596 0 0 0 -6.050793,-6.05079 z m 0,2.03037 a 4.0202694,4.0202694 0 0 1 4.01991,4.02042 4.0202694,4.0202694 0 0 1 -4.01991,4.02043 4.0202694,4.0202694 0 0 1 -4.020426,-4.02043 4.0202694,4.0202694 0 0 1 4.020426,-4.02042 z" />
    <path
       id="path42342-5"
       style="opacity:0.673295;fill:#668000;stroke-width:1;stroke-linejoin:round"
       d="m 105.81145,135.88576 a 6.0507596,6.0507596 0 0 0 -6.050792,6.05079 6.0507596,6.0507596 0 0 0 6.050792,6.05079 6.0507596,6.0507596 0 0 0 6.05079,-6.05079 6.0507596,6.0507596 0 0 0 -6.05079,-6.05079 z m 0,2.03036 a 4.0202694,4.0202694 0 0 1 4.01991,4.02043 4.0202694,4.0202694 0 0 1 -4.01991,4.02043 4.0202694,4.0202694 0 0 1 -4.02043,-4.02043 4.0202694,4.0202694 0 0 1 4.02043,-4.02043 z" />
    <path
       id="path42342-1"
       style="opacity:0.673295;fill:#668000;stroke-width:1;stroke-linejoin:round"
       d="m 146.29511,135.88576 a 6.0507596,6.0507596 0 0 0 -6.0508,6.05079 6.0507596,6.0507596 0 0 0 6.0508,6.0508 6.0507596,6.0507596 0 0 0 6.05079,-6.0508 6.0507596,6.0507596 0 0 0 -6.05079,-6.05079 z m 0,2.03036 a 4.0202694,4.0202694 0 0 1 4.01991,4.02043 4.0202694,4.0202694 0 0 1 -4.01991,4.02043 4.0202694,4.0202694 0 0 1 -4.02043,-4.02043 4.0202694,4.0202694 0 0 1 4.02043,-4.02043 z" />
    <path
       id="path42342-16"
       style="opacity:0.673295;fill:#668000;stroke-width:1;stroke-linejoin:round"
       d="m 186.77876,135.88576 a 6.0507596,6.0507596 0 0 0 -6.05079,6.05079 6.0507596,6.0507596 0 0 0 6.05079,6.0508 6.0507596,6.0507596 0 0 0 6.0508,-6.0508 6.0507596,6.0507596 0 0 0 -6.0508,-6.05079 z m 0,2.03037 a 4.0202694,4.0202694 0 0 1 4.01991,4.02042 4.0202694,4.0202694 0 0 1 -4.01991,4.02043 4.0202694,4.0202694 0 0 1 -4.02042,-4.02043 4.0202694,4.0202694 0 0 1 4.02042,-4.02042 z" />
    <path
       id="path42342-3"
       style="opacity:0.673295;fill:#668000;stroke-width:1;stroke-linejoin:round"
       d="m 227.26242,135.88576 a 6.0507596,6.0507596 0 0 0 -6.05079,6.05079 6.0507596,6.0507596 0 0 0 6.05079,6.0508 6.0507596,6.0507596 0 0 0 6.0508,-6.0508 6.0507596,6.0507596 0 0 0 -6.0508,-6.05079 z m 0,2.03037 a 4.0202694,4.0202694 0 0 1 4.01991,4.02042 4.0202694,4.0202694 0 0 1 -4.01991,4.02043 4.0202694,4.0202694 0 0 1 -4.02042,-4.02043 4.0202694,4.0202694 0 0 1 4.02042,-4.02042 z" />
    <circle
       style="opacity:0.673295;fill:#668000;stroke-width:1.03061;stroke-linejoin:round"
       id="path42672"
       cx="105.7347"
       cy="141.93655"
       r="6.0510001" />
    <circle
       style="opacity:0.673295;fill:#668000;stroke-width:1.03061;stroke-linejoin:round"
       id="path42672-0"
       cx="132.91159"
       cy="129.37344"
       r="6.0510001" />
  </g>
</svg>
